#!OML:ASF I:\Actors\actors\Patient Classification 2\Patient 1\Session 1\actor1.ASF
:FULLY-SPECIFIED
:DEGREES
338
root 2.01109 17.6336 3.57863 24.3083 -30.6168 -9.61267
lowerback 32.5261 0.0535091 -2.73629
upperback 6.17513 -1.32298 -2.10074
thorax -9.90873 -0.64371 -0.252923
lowerneck -17.06 8.43268 9.85109
upperneck 16.2494 10.6935 -8.56954
head 8.90029 4.78456 -3.09145
rclavicle -3.18055e-015 1.27222e-014
rhumerus -41.5716 36.3399 -102.089
rradius 97.1639
rwrist 3.92612
rhand -20.093 -70.1517
rfingers 7.12502
rthumb 6.25006 -259.96
lclavicle -3.18055e-015 1.27222e-014
lhumerus 10.2512 -1.48977 81.0948
lradius 76.7573
lwrist 75.2537
lhand -43.7338 -13.2107
lfingers 7.12502
lthumb -16.565 16.1023
rfemur -21.1262 16.8204 6.09727
rtibia -17.2414
rfoot 4.96619 -16.8163
rtoes -2.53735
lfemur 7.50606 15.1006 -18.7544
ltibia -47.4015
lfoot 19.8472 19.2461
ltoes -1.44982
339
root 2.00808 17.6342 3.5787 24.4031 -30.7519 -9.5866
lowerback 32.4139 0.0350554 -2.85581
upperback 6.17465 -1.37971 -2.09329
thorax -9.86023 -0.667619 -0.160842
lowerneck -16.788 8.47428 9.64715
upperneck 16.0758 10.7953 -8.48178
head 8.78557 4.83822 -3.02299
rclavicle -1.33583e-013 2.06736e-014
rhumerus -42.7279 36.2963 -102.594
rradius 99.8665
rwrist 5.24418
rhand -19.7815 -69.4815
rfingers 7.12502
rthumb 6.55077 -260.64
lclavicle -1.33583e-013 2.06736e-014
lhumerus 9.25318 -1.54862 81.0268
lradius 80.8136
lwrist 76.2913
lhand -43.9093 -14.112
lfingers 7.12502
lthumb -16.7339 15.1868
rfemur -21.2386 16.8687 6.01287
rtibia -17.3159
rfoot 5.002 -16.8638
rtoes -2.41782
lfemur 7.42397 15.0829 -18.8065
ltibia -47.4063
lfoot 19.8235 19.4028
ltoes -1.27427
340
root 2.00063 17.6381 3.57848 24.5953 -31.0185 -9.55445
lowerback 32.1926 0.079585 -3.06727
upperback 6.09143 -1.39261 -2.16033
thorax -9.85945 -0.667547 -0.114914
lowerneck -16.5287 8.48163 9.55078
upperneck 16.0777 10.8139 -8.30728
head 8.72556 4.86487 -2.95435
rclavicle -2.8625e-014 0
rhumerus -44.0236 36.4099 -103.509
rradius 102.497
rwrist 5.43641
rhand -20.1298 -68.6345
rfingers 7.12502
rthumb 6.21446 -261.477
lclavicle -2.8625e-014 0
lhumerus 8.46336 -1.47072 81.0949
lradius 84.2523
lwrist 76.3558
lhand -43.4554 -13.9515
lfingers 7.12502
lthumb -16.2969 15.3837
rfemur -21.4879 17.0313 5.82841
rtibia -17.4204
rfoot 5.18167 -16.9222
rtoes -3.08724
lfemur 7.2108 15.298 -18.9695
ltibia -47.3661
lfoot 19.7912 19.5
ltoes -1.10741
341
root 1.98709 17.6432 3.57906 24.8339 -31.3732 -9.60224
lowerback 31.9634 0.178857 -3.28155
upperback 5.94152 -1.34595 -2.28989
thorax -9.93144 -0.638307 -0.155069
lowerneck -16.2643 8.47699 9.65481
upperneck 16.1368 10.7801 -8.18044
head 8.69385 4.87358 -2.94121
rclavicle 6.36111e-015 4.77083e-014
rhumerus -45.2385 36.5049 -104.538
rradius 104.607
rwrist 5.372
rhand -20.0135 -68.1811
rfingers 7.12502
rthumb 6.32678 -261.933
lclavicle 6.36111e-015 4.77083e-014
lhumerus 7.99948 -1.30035 81.2845
lradius 86.5346
lwrist 75.5765
lhand -42.5846 -13.5866
lfingers 7.12502
lthumb -15.4583 15.8153
rfemur -21.7799 17.3097 5.6743
rtibia -17.5142
rfoot 5.3792 -16.9857
rtoes -3.63151
lfemur 6.99274 15.6955 -19.1065
ltibia -47.2831
lfoot 19.7439 19.5022
ltoes -1.30908
342
root 1.97512 17.6476 3.577 24.916 -31.4989 -9.50743
lowerback 31.9021 0.152509 -3.34515
upperback 5.75713 -1.42235 -2.47387
thorax -10.1142 -0.66654 -0.287427
lowerneck -16.0728 8.46751 9.7984
upperneck 16.2591 10.7245 -8.03538
head 8.69559 4.87343 -2.92877
rclavicle -6.67916e-014 7.4743e-014
rhumerus -46.1162 36.4993 -105.375
rradius 105.86
rwrist 5.51885
rhand -19.5175 -67.963
rfingers 7.12502
rthumb 6.80563 -262.166
lclavicle -6.67916e-014 7.4743e-014
lhumerus 7.72338 -1.10601 81.4541
lradius 87.3408
lwrist 74.192
lhand -40.7659 -15.1019
lfingers 7.12502
lthumb -13.706 14.4268
rfemur -21.9419 17.4988 5.44636
rtibia -17.5588
rfoot 5.34406 -17.1193
rtoes -3.80639
lfemur 6.80552 15.8495 -19.2587
ltibia -47.1655
lfoot 19.6883 19.4426
ltoes -1.54419
343
root 1.964 17.6522 3.576 24.8906 -31.5032 -9.37115
lowerback 31.819 0.0718482 -3.27195
upperback 5.63093 -1.52275 -2.67897
thorax -10.2294 -0.711476 -0.50703
lowerneck -16.0604 8.45118 9.85893
upperneck 16.4768 10.6551 -7.81667
head 8.75094 4.86319 -2.87429
rclavicle -1.59028e-015 -3.18055e-014
rhumerus -46.5262 36.4347 -105.949
rradius 106.127
rwrist 5.40123
rhand -19.257 -67.9618
rfingers 7.12502
rthumb 7.05703 -262.176
lclavicle -1.59028e-015 -3.18055e-014
lhumerus 8.20739 -1.05024 81.3126
lradius 85.8626
lwrist 73.0676
lhand -40.9403 -15.3642
lfingers 7.12502
lthumb -13.8741 14.153
rfemur -21.9821 17.5947 5.26913
rtibia -17.5437
rfoot 5.18555 -17.2084
rtoes -3.70593
lfemur 6.6967 15.897 -19.3723
ltibia -47.0266
lfoot 19.5877 19.3634
ltoes -1.46573
344
root 1.95225 17.6581 3.57306 24.7189 -31.4509 -9.27954
lowerback 31.8119 0.0287422 -3.1829
upperback 5.581 -1.56388 -2.80356
thorax -10.2895 -0.73172 -0.671533
lowerneck -16.2108 8.44793 9.85696
upperneck 16.73 10.6218 -7.67041
head 8.85183 4.85476 -2.82367
rclavicle 3.33958e-014 1.59028e-015
rhumerus -46.3813 36.3417 -106.06
rradius 105.362
rwrist 4.90548
rhand -19.6936 -67.6083
rfingers 7.12502
rthumb 6.63563 -262.516
lclavicle 3.33958e-014 1.59028e-015
lhumerus 9.35043 -0.888233 81.1008
lradius 82.7185
lwrist 73.0841
lhand -42.5179 -14.3981
lfingers 7.12502
lthumb -15.3941 15.0088
rfemur -21.8099 17.6313 5.2744
rtibia -17.5087
rfoot 5.05354 -17.2121
rtoes -3.33389
lfemur 6.7609 15.9723 -19.3856
ltibia -46.8813
lfoot 19.5127 19.1921
ltoes -1.80058
345
root 1.94662 17.6636 3.56968 24.4276 -31.2034 -9.15716
lowerback 31.8536 -0.0712325 -3.01472
upperback 5.59213 -1.63445 -2.80124
thorax -10.2998 -0.767953 -0.73289
lowerneck -16.5014 8.43615 9.79989
upperneck 17.0198 10.6143 -7.6827
head 8.99946 4.83538 -2.80982
rclavicle -4.77083e-015 3.18055e-015
rhumerus -45.649 36.3867 -105.634
rradius 103.592
rwrist 4.34351
rhand -20.5469 -67.2208
rfingers 7.12502
rthumb 5.81179 -262.879
lclavicle -4.77083e-015 3.18055e-015
lhumerus 10.6066 -0.481159 81.0471
lradius 78.9431
lwrist 74.2569
lhand -43.7181 -14.5619
lfingers 7.12502
lthumb -16.5498 14.7523
rfemur -21.4658 17.4273 5.42029
rtibia -17.4631
rfoot 4.97075 -17.1393
rtoes -3.07549
lfemur 6.90265 15.8454 -19.3408
ltibia -46.7589
lfoot 19.5017 19.012
ltoes -2.41321
346
root 1.9484 17.6662 3.56843 24.1318 -30.7428 -9.02334
lowerback 31.8402 -0.27932 -2.77702
upperback 5.65188 -1.79428 -2.65595
thorax -10.2303 -0.847015 -0.647633
lowerneck -16.9125 8.40927 9.56046
upperneck 17.3331 10.624 -7.68881
head 9.16797 4.80908 -2.75907
rclavicle 4.13472e-014 -3.33958e-014
rhumerus -44.4615 36.853 -104.843
rradius 101.095
rwrist 3.7809
rhand -20.757 -67.8559
rfingers 7.12502
rthumb 5.60893 -262.238
lclavicle 4.13472e-014 -3.33958e-014
lhumerus 11.7313 0.0470712 81.0769
lradius 75.3319
lwrist 75.9301
lhand -45.0315 -14.6643
lfingers 7.12502
lthumb -17.814 14.5398
rfemur -21.0623 16.9814 5.65516
rtibia -17.421
rfoot 4.88889 -17.0528
rtoes -2.73393
lfemur 7.03653 15.4266 -19.2301
ltibia -46.6792
lfoot 19.5036 18.9584
ltoes -2.61583
347
root 1.94571 17.6666 3.56497 23.9139 -30.3952 -9.03843
lowerback 31.8308 -0.39112 -2.78858
upperback 5.69973 -1.89839 -2.3688
thorax -10.1603 -0.89342 -0.299382
lowerneck -17.2268 8.4175 9.31727
upperneck 17.5637 10.6991 -7.74173
head 9.30004 4.81093 -2.7171
rclavicle 2.54444e-014 7.95139e-015
rhumerus -43.147 37.7034 -103.968
rradius 98.5027
rwrist 2.92701
rhand -20.4219 -69.1743
rfingers 7.12502
rthumb 5.93245 -260.929
lclavicle 2.54444e-014 7.95139e-015
lhumerus 12.2015 0.459179 81.0901
lradius 73.0683
lwrist 76.942
lhand -46.8315 -13.0365
lfingers 7.12502
lthumb -19.5453 16.0011
rfemur -20.6963 16.7009 5.95969
rtibia -17.4225
rfoot 4.85429 -17.0113
rtoes -2.2591
lfemur 7.23627 15.1395 -19.0109
ltibia -46.6597
lfoot 19.488 18.9893
ltoes -2.47317
